<?xml version="1.0" encoding="utf-8"?>
<svg xmlns="http://www.w3.org/2000/svg" xml:space="preserve" width="91.135" height="100" version="1.0">
  <path d="M91.133 100c-1.974 0-3.899-.464-5.605-1.242-1.741-.827-3.718-1.307-5.779-1.307-2.049 0-4.022.479-5.766 1.307-1.729.778-3.633 1.242-5.629 1.242-1.974 0-3.905-.464-5.605-1.242-1.75-.827-3.726-1.307-5.788-1.307-2.04 0-4.017.479-5.764 1.307-1.723.778-3.634 1.242-5.629 1.242-1.999 0-3.902-.464-5.607-1.242-1.75-.827-3.728-1.307-5.781-1.307-2.061 0-4.039.479-5.779 1.307-1.711.778-3.623 1.242-5.622 1.242-1.983 0-3.9-.464-5.613-1.242-1.753-.827-3.724-1.307-5.781-1.307-2.05 0-4.023.479-5.774 1.307C3.896 99.536 1.996 100 0 100v-8.516c1.996 0 3.896-.458 5.611-1.242 1.751-.801 3.725-1.276 5.774-1.276 2.057 0 4.028.478 5.781 1.276 1.713.784 3.63 1.242 5.613 1.242 1.996 0 3.911-.458 5.622-1.242 1.741-.801 3.718-1.276 5.779-1.276 2.054 0 4.031.478 5.781 1.276 1.705.784 3.608 1.242 5.607 1.242 1.995 0 3.905-.458 5.628-1.242 1.747-.801 3.725-1.276 5.764-1.276 2.062 0 4.038.478 5.788 1.276 1.7.784 3.632 1.242 5.605 1.242 1.996 0 3.9-.458 5.629-1.242 1.743-.801 3.717-1.276 5.766-1.276 2.061 0 4.038.478 5.779 1.276 1.706.784 3.631 1.242 5.605 1.242V100h.001zM59.481 15.158c15.27 7.178 33.402 26.315 31.022 49.278H59.481V15.158zM83.946 69.07h-69.03v12.665c.777.206 1.547.434 2.251.777 1.713.754 3.63 1.219 5.613 1.219 1.999 0 3.914-.465 5.622-1.219 1.741-.823 3.718-1.307 5.779-1.307 2.054 0 4.031.483 5.781 1.307 1.707.754 3.611 1.219 5.607 1.219 1.995 0 3.905-.465 5.628-1.219 1.75-.823 3.725-1.307 5.764-1.307 2.062 0 4.04.483 5.788 1.307 1.7.754 3.632 1.219 5.605 1.219.385 0 .751-.096 1.11-.139.044 0 .044.043.089.043.252 0 .436-.111.685-.111.454-.063.906-.116 1.364-.226 4.082-.854 6.717-4.067 6.717-4.067l7.938-10.158h-2.309v-.003h-.002zM54.73.068c-.127-.091-.294-.104-.426.047-.001.001-.003.002-.005.003-.002.002-.004.002-.006.005-17.297 21.35-34.595 42.699-51.892 64.05-.196.241-.088.637.264.637h51.893c.204 0 .374-.17.374-.373V.388c.001-.164-.088-.268-.202-.32z"/>
</svg>